<svg width="295" height="59" viewBox="0 0 295 59" fill="none" xmlns="http://www.w3.org/2000/svg">
<path d="M41.8181 48.8306L2.33861 21.5977C-1.66215 18.8381 -0.302154 13.0922 4.6867 11.741L46.6463 0.352723C47.5351 0.0320001 48.4876 -0.0721106 49.4248 0.0490339C50.3619 0.170178 51.2566 0.513083 52.0347 1.04929C52.8127 1.58549 53.4517 2.29953 53.8985 3.13215C54.3453 3.96476 54.5871 4.89194 54.6038 5.83672L52.1171 44.4557C51.8222 49.0397 45.8188 51.5902 41.8181 48.8306Z" fill="#E9327C"/>
<path d="M29.297 55.553L6.03848 10.068C5.50682 9.02743 5.27286 7.86025 5.36241 6.69516C5.45196 5.53008 5.86153 4.41235 6.54596 3.46526C7.2304 2.51816 8.16309 1.77848 9.24121 1.3278C10.3193 0.877108 11.501 0.732923 12.6558 0.911137L55.7597 7.56367C56.7521 7.71684 57.694 8.10339 58.5078 8.69151C59.3217 9.27964 59.9844 10.0526 60.4413 10.9467C60.8983 11.8408 61.1365 12.8307 61.1363 13.8348C61.1362 14.839 60.8977 15.8287 60.4405 16.7227L40.5841 55.5552C40.0509 56.5928 39.242 57.4633 38.2462 58.071C37.2505 58.6787 36.1064 59.0001 34.9399 58.9999C33.7733 58.9996 32.6294 58.6778 31.6339 58.0697C30.6384 57.4616 29.8298 56.5908 29.297 55.553V55.553Z" fill="#1DACE3"/>
<path d="M54.4972 7.36861L33.0102 4.05225L6.62891 11.2153L17.159 31.8155L41.8171 48.8309C42.3611 49.202 42.9595 49.4863 43.5908 49.6737L52.9568 31.3578L54.4972 7.36861Z" fill="#3A68B8"/>
<path d="M163.336 12.6851C163.336 11.8865 163.573 11.1057 164.016 10.4417C164.46 9.77759 165.091 9.26 165.829 8.95436C166.567 8.64872 167.379 8.56875 168.162 8.72457C168.945 8.88038 169.665 9.26498 170.23 9.82973C170.794 10.3945 171.179 11.114 171.335 11.8973C171.491 12.6807 171.411 13.4926 171.105 14.2305C170.799 14.9684 170.282 15.599 169.618 16.0428C168.954 16.4865 168.173 16.7233 167.374 16.7233C166.306 16.7124 165.286 16.2835 164.531 15.5285C163.776 14.7736 163.347 13.7528 163.336 12.6851V12.6851ZM164.009 18.6973H170.741V41.1306H164.009V18.6973Z" fill="white"/>
<path d="M199.812 29.914C199.891 31.3968 199.675 32.8805 199.178 34.2796C198.68 35.6787 197.912 36.9658 196.915 38.0667C195.919 39.1676 194.715 40.0606 193.372 40.6945C192.029 41.3283 190.574 41.6905 189.091 41.7601C187.843 41.828 186.596 41.6176 185.44 41.1441C184.284 40.6706 183.247 39.9459 182.405 39.0225V50.1049H175.676V18.6974H182.405V20.8056C183.247 19.8825 184.284 19.1582 185.44 18.6851C186.596 18.2121 187.843 18.002 189.091 18.0702C190.574 18.1395 192.029 18.5014 193.372 19.135C194.714 19.7686 195.919 20.6614 196.915 21.7622C197.911 22.8629 198.68 24.1498 199.178 25.5488C199.675 26.9478 199.891 28.4313 199.812 29.914ZM193.083 29.914C193.056 28.8637 192.721 27.8445 192.118 26.984C191.515 26.1235 190.672 25.4598 189.694 25.0762C188.716 24.6925 187.646 24.6058 186.619 24.827C185.592 25.0482 184.653 25.5674 183.92 26.3196C183.186 27.0718 182.691 28.0237 182.496 29.056C182.3 30.0884 182.414 31.1554 182.822 32.1235C183.23 33.0916 183.915 33.9178 184.791 34.4986C185.666 35.0795 186.693 35.3893 187.744 35.3892C188.466 35.4217 189.186 35.3013 189.857 35.0357C190.529 34.7702 191.137 34.3656 191.641 33.8486C192.145 33.3315 192.534 32.7136 192.783 32.0355C193.031 31.3574 193.134 30.6344 193.083 29.914V29.914Z" fill="white"/>
<path d="M220.584 34.3966C220.584 39.5571 216.097 41.7555 211.251 41.7555C209.293 41.9327 207.328 41.5183 205.608 40.5662C203.888 39.614 202.494 38.1678 201.605 36.4146L207.437 33.096C207.674 33.9064 208.182 34.6108 208.877 35.0915C209.571 35.5722 210.409 35.8 211.251 35.7368C212.866 35.7368 213.672 35.2416 213.672 34.346C213.672 31.8768 202.635 33.1796 202.635 25.4158C202.635 20.5259 206.762 18.059 211.438 18.059C213.192 18.004 214.929 18.4202 216.467 19.2643C218.006 20.1085 219.29 21.3497 220.185 22.8586L214.444 25.9549C214.193 25.366 213.774 24.8642 213.239 24.5119C212.705 24.1597 212.078 23.9727 211.438 23.9743C210.272 23.9743 209.554 24.4145 209.554 25.2309C209.548 27.8057 220.584 26.1002 220.584 34.3966Z" fill="white"/>
<path d="M245.18 18.6968V41.1301H238.45V39.0175C237.673 39.9481 236.686 40.6814 235.571 41.1572C234.455 41.633 233.243 41.8379 232.033 41.7551C227.502 41.7551 223.645 38.5245 223.645 32.4662V18.6968H230.374V31.4847C230.317 32.0194 230.378 32.56 230.552 33.0688C230.725 33.5777 231.008 34.0426 231.379 34.4312C231.751 34.8198 232.203 35.1227 232.703 35.3188C233.204 35.515 233.741 35.5996 234.278 35.5669C236.745 35.5669 238.459 34.1321 238.459 30.9455V18.6968H245.18Z" fill="white"/>
<path d="M283.752 27.3538V41.1298H277.022V27.9391C277.022 25.6967 275.944 24.2597 273.791 24.2597C271.547 24.2597 270.292 25.8309 270.292 28.4783V41.1298H263.561V27.9391C263.561 25.6967 262.485 24.2597 260.33 24.2597C258.088 24.2597 256.831 25.8309 256.831 28.4783V41.1298H250.102V18.6965H256.842V20.7518C257.54 19.8366 258.455 19.1108 259.506 18.6406C260.556 18.1705 261.707 17.971 262.854 18.0605C264.006 18.0041 265.153 18.2472 266.183 18.7659C267.213 19.2846 268.092 20.0613 268.732 21.0203C269.478 20.0169 270.466 19.2191 271.604 18.7014C272.742 18.1838 273.993 17.9633 275.239 18.0605C280.389 18.0693 283.752 21.7465 283.752 27.3538Z" fill="white"/>
<path d="M289.452 18.5583C292.211 18.5583 294.448 16.3217 294.448 13.5628C294.448 10.8039 292.211 8.56738 289.452 8.56738C286.694 8.56738 284.457 10.8039 284.457 13.5628C284.457 16.3217 286.694 18.5583 289.452 18.5583Z" fill="white"/>
<path d="M71.4531 8.37793H78.1849V41.13H71.4531V8.37793ZM81.9964 29.9134C81.989 27.5615 82.6796 25.2603 83.9809 23.3011C85.2822 21.342 87.1355 19.813 89.3063 18.9079C91.477 18.0027 93.8675 17.762 96.1752 18.2163C98.4828 18.6706 100.604 19.7994 102.269 21.4599C103.935 23.1203 105.071 25.2377 105.532 27.5438C105.994 29.85 105.761 32.2413 104.862 34.4149C103.964 36.5885 102.441 38.4466 100.486 39.7541C98.5308 41.0615 96.2318 41.7594 93.8798 41.7594C92.3178 41.7761 90.7681 41.4814 89.3212 40.8925C87.8743 40.3035 86.5593 39.4322 85.453 38.3293C84.3467 37.2265 83.4712 35.9142 82.8777 34.4692C82.2842 33.0242 81.9846 31.4755 81.9964 29.9134V29.9134ZM99.0469 29.9134C99.0205 28.8989 98.6956 27.9147 98.1127 27.0839C97.5299 26.2531 96.715 25.6126 95.77 25.2425C94.8251 24.8724 93.7919 24.7892 92.7999 25.0032C91.8079 25.2172 90.901 25.719 90.1926 26.4458C89.4843 27.1725 89.0059 28.092 88.8175 29.0892C88.629 30.0864 88.7387 31.1171 89.1329 32.0522C89.5272 32.9874 90.1884 33.7855 91.0339 34.3469C91.8794 34.9082 92.8716 35.2078 93.8864 35.2081C94.5814 35.2279 95.2729 35.1035 95.9174 34.8428C96.5618 34.582 97.1453 34.1906 97.631 33.6932C98.1167 33.1957 98.494 32.603 98.7392 31.9525C98.9844 31.3019 99.0922 30.6076 99.0557 29.9134H99.0469ZM132.604 18.6901V40.0033C132.604 47.5405 126.727 50.7248 120.761 50.7248C118.661 50.8833 116.557 50.4606 114.682 49.503C112.806 48.5454 111.23 47.0898 110.127 45.2959L115.869 41.9751C116.332 42.9114 117.07 43.6838 117.985 44.1892C118.899 44.6945 119.946 44.9086 120.985 44.8029C121.648 44.8935 122.324 44.834 122.961 44.6287C123.598 44.4235 124.181 44.0778 124.667 43.6171C125.153 43.1565 125.529 42.5926 125.768 41.9671C126.007 41.3416 126.102 40.6705 126.047 40.0033V37.9391C125.258 38.9031 124.255 39.669 123.117 40.1754C121.98 40.6817 120.739 40.9145 119.495 40.855C116.534 40.7629 113.725 39.522 111.663 37.3948C109.601 35.2677 108.448 32.4215 108.448 29.459C108.448 26.4964 109.601 23.6502 111.663 21.5231C113.725 19.3959 116.534 18.155 119.495 18.0629C120.739 18.0034 121.98 18.2362 123.117 18.7425C124.255 19.2489 125.258 20.0148 126.047 20.9788V18.6901H132.604ZM126.055 29.4579C126.1 28.3743 125.819 27.3023 125.249 26.3796C124.679 25.457 123.847 24.7258 122.858 24.2802C121.869 23.8345 120.77 23.6948 119.701 23.8789C118.633 24.0631 117.644 24.5627 116.861 25.3134C116.079 26.0642 115.539 27.0319 115.31 28.0921C115.082 29.1522 115.176 30.2564 115.581 31.2626C115.985 32.2688 116.681 33.131 117.58 33.7385C118.478 34.3459 119.538 34.6707 120.622 34.6712C121.329 34.7209 122.039 34.622 122.705 34.381C123.372 34.14 123.981 33.7621 124.492 33.2717C125.004 32.7813 125.408 32.1892 125.677 31.5335C125.946 30.8778 126.075 30.173 126.055 29.4645V29.4579ZM136.416 29.898C136.409 27.5461 137.099 25.2449 138.401 23.2857C139.702 21.3266 141.555 19.7976 143.726 18.8925C145.897 17.9873 148.287 17.7466 150.595 18.2009C152.902 18.6552 155.023 19.784 156.689 21.4445C158.355 23.1049 159.49 25.2222 159.952 27.5284C160.413 29.8346 160.18 32.2259 159.282 34.3995C158.384 36.5731 156.86 38.4312 154.905 39.7387C152.95 41.0461 150.651 41.744 148.299 41.744C146.739 41.7607 145.19 41.4665 143.744 40.8785C142.299 40.2905 140.984 39.4206 139.878 38.3193C138.772 37.2181 137.896 35.9077 137.302 34.4645C136.707 33.0213 136.406 31.4742 136.416 29.9134V29.898ZM153.467 29.898C153.441 28.8828 153.116 27.8979 152.533 27.0664C151.95 26.2349 151.135 25.5938 150.189 25.2232C149.244 24.8527 148.21 24.7693 147.217 24.9833C146.225 25.1974 145.317 25.6994 144.608 26.4266C143.9 27.1538 143.421 28.0739 143.233 29.0718C143.044 30.0696 143.154 31.1009 143.549 32.0365C143.943 32.9722 144.605 33.7706 145.451 34.332C146.298 34.8934 147.291 35.1928 148.306 35.1927C148.999 35.2111 149.688 35.0863 150.33 34.8259C150.973 34.5655 151.554 34.1753 152.039 33.6797C152.523 33.184 152.9 32.5937 153.146 31.9456C153.392 31.2975 153.501 30.6056 153.467 29.9134V29.898Z" fill="white"/>
</svg>
