<svg width="207" height="59" viewBox="0 0 207 59" fill="none" xmlns="http://www.w3.org/2000/svg">
<path d="M29.5 0C25.6261 0 21.7899 0.763123 18.2108 2.24554C14.6317 3.72813 11.3797 5.90101 8.6403 8.6403C5.90101 11.3797 3.72813 14.6317 2.24554 18.2108C0.763123 21.7899 0 25.6261 0 29.5C0 33.3739 0.763123 37.2101 2.24554 40.7892C3.72813 44.3683 5.90101 47.6202 8.6403 50.3597C11.3797 53.099 14.6317 55.2719 18.2108 56.7545C21.7899 58.2369 25.6261 59 29.5 59V44.25C27.5629 44.25 25.6449 43.8685 23.8554 43.1271C22.0658 42.3859 20.4398 41.2995 19.0702 39.9298C17.7005 38.5602 16.6141 36.9342 15.8729 35.1446C15.1315 33.3551 14.75 31.4371 14.75 29.5C14.75 27.5629 15.1315 25.6449 15.8729 23.8554C16.6141 22.0658 17.7005 20.4398 19.0702 19.0702C20.4398 17.7005 22.0658 16.6141 23.8554 15.8729C25.6449 15.1315 27.5629 14.75 29.5 14.75V0Z" fill="#0F52FF"/>
<path d="M29.5013 39.3332C34.9321 39.3332 39.3346 34.9306 39.3346 29.4998C39.3346 24.069 34.9321 19.6665 29.5013 19.6665C24.0705 19.6665 19.668 24.069 19.668 29.4998C19.668 34.9306 24.0705 39.3332 29.5013 39.3332Z" fill="#0F52FF"/>
<path d="M0 29.5C0 33.3739 0.763123 37.2101 2.24554 40.7892C3.72813 44.3683 5.90101 47.6202 8.6403 50.3597C11.3797 53.099 14.6317 55.2719 18.2108 56.7545C21.7899 58.2369 25.6261 59 29.5 59C33.3739 59 37.2101 58.2369 40.7892 56.7545C44.3683 55.2719 47.6202 53.099 50.3597 50.3597C53.099 47.6202 55.2719 44.3683 56.7545 40.7892C58.2369 37.2101 59 33.3739 59 29.5H44.25C44.25 31.4371 43.8685 33.3551 43.1271 35.1446C42.3859 36.9342 41.2995 38.5602 39.9298 39.9298C38.5602 41.2995 36.9342 42.3859 35.1446 43.1271C33.3551 43.8685 31.4371 44.25 29.5 44.25C27.5629 44.25 25.6449 43.8685 23.8554 43.1271C22.0658 42.3859 20.4398 41.2995 19.0702 39.9298C17.7005 38.5602 16.6141 36.9342 15.8729 35.1446C15.1315 33.3551 14.75 31.4371 14.75 29.5H0Z" fill="#5BD0F4"/>
<path d="M39.3347 29.5C39.3347 26.892 38.2987 24.3909 36.4547 22.5467C34.6105 20.7025 32.1094 19.6665 29.5014 19.6665C26.8934 19.6665 24.3924 20.7025 22.5482 22.5467C20.704 24.3909 19.668 26.892 19.668 29.5H29.5014H39.3347Z" fill="#5BD0F4"/>
<path d="M74.4061 18.4165H70.7422V38.7715H74.4061V18.4165Z" fill="#0F52FF"/>
<path d="M76.8008 31.5605C76.8008 36.2712 80.0576 39.1791 84.3612 39.1791C88.6648 39.1791 91.9216 36.2712 91.9216 31.5605C91.9216 26.8498 88.6648 23.9419 84.3612 23.9419C80.0576 23.9419 76.8008 26.8498 76.8008 31.5605ZM80.4647 31.5605C80.4647 28.7689 82.0931 27.1405 84.3612 27.1405C86.6293 27.1405 88.2577 28.7689 88.2577 31.5605C88.2577 34.352 86.6293 35.9804 84.3612 35.9804C82.0931 35.9804 80.4647 34.352 80.4647 31.5605Z" fill="#0F52FF"/>
<path d="M105.015 24.349V26.2972H104.724C103.852 25.0469 102.456 23.9419 99.955 23.9419C96.5237 23.9419 93.4414 26.8498 93.4414 31.3279C93.4414 35.806 96.5237 38.7138 99.955 38.7138C102.456 38.7138 103.852 37.5797 104.666 36.4457H104.957V37.8415C104.957 40.633 103.328 41.9125 100.944 41.9125C98.5592 41.9125 97.3379 40.633 96.8435 38.9754L93.5577 40.4004C94.3138 42.5812 96.5237 44.9948 101.002 44.9948C105.596 44.9948 108.62 42.5812 108.62 37.9286V24.349H105.015ZM101.06 35.5733C98.7919 35.5733 97.1053 33.9449 97.1053 31.3279C97.1053 28.7108 98.7919 27.0824 101.06 27.0824C103.328 27.0824 105.015 28.7108 105.015 31.3279C105.015 33.9449 103.328 35.5733 101.06 35.5733Z" fill="#0F52FF"/>
<path d="M110.988 31.5605C110.988 36.2712 114.245 39.1791 118.549 39.1791C122.852 39.1791 126.109 36.2712 126.109 31.5605C126.109 26.8498 122.852 23.9419 118.549 23.9419C114.245 23.9419 110.988 26.8498 110.988 31.5605ZM114.652 31.5605C114.652 28.7689 116.281 27.1405 118.549 27.1405C120.817 27.1405 122.445 28.7689 122.445 31.5605C122.445 34.352 120.817 35.9804 118.549 35.9804C116.281 35.9804 114.652 34.352 114.652 31.5605Z" fill="#0F52FF"/>
<path d="M128.984 20.1609C128.984 21.644 130.119 22.6617 131.574 22.6617C133.027 22.6617 134.161 21.644 134.161 20.1609C134.161 18.678 133.027 17.6602 131.574 17.6602C130.119 17.6602 128.984 18.678 128.984 20.1609ZM133.404 24.3482H129.741V38.7712H133.404V24.3482Z" fill="#5BD0F4"/>
<path d="M136.672 44.5877H140.337V36.9109H140.627C141.441 38.0741 142.837 39.1791 145.338 39.1791C148.769 39.1791 151.852 36.2712 151.852 31.5605C151.852 26.8498 148.769 23.9419 145.338 23.9419C142.837 23.9419 141.441 25.0469 140.569 26.2973H140.278V24.349H136.672V44.5877ZM144.232 36.0386C141.965 36.0386 140.278 34.4102 140.278 31.5605C140.278 28.7108 141.965 27.0824 144.232 27.0824C146.501 27.0824 148.187 28.7108 148.187 31.5605C148.187 34.4102 146.501 36.0386 144.232 36.0386Z" fill="#5BD0F4"/>
<path d="M153.989 28.391C153.989 31.2407 156.373 32.2875 159.397 32.8691L160.154 33.0144C161.956 33.3634 162.77 33.7996 162.77 34.7301C162.77 35.6606 161.956 36.3875 160.27 36.3875C158.583 36.3875 157.217 35.6896 156.838 33.596L153.465 34.4683C153.96 37.4925 156.489 39.1791 160.27 39.1791C163.933 39.1791 166.318 37.4635 166.318 34.4393C166.318 31.415 163.876 30.601 160.619 29.9612L159.862 29.8158C158.35 29.525 157.536 29.1179 157.536 28.1584C157.536 27.286 158.293 26.7334 159.689 26.7334C161.084 26.7334 162.072 27.315 162.421 28.8852L165.737 27.8676C165.039 25.5413 162.917 23.9419 159.689 23.9419C156.256 23.9419 153.989 25.5413 153.989 28.391Z" fill="#5BD0F4"/>
<path d="M182.774 38.7711V24.3481H179.111V31.7923C179.111 34.4675 177.803 36.0377 175.563 36.0377C173.585 36.0377 172.481 34.9619 172.481 32.7809V24.3481H168.816V32.9554C168.816 36.5321 171.057 39.0037 174.43 39.0037C177.075 39.0037 178.297 37.8406 178.878 36.6193H179.168V38.7711H182.774Z" fill="#5BD0F4"/>
<path d="M186.027 24.3488V38.7718H189.692V30.1646C189.692 28.1872 190.623 27.0822 192.308 27.0822C193.763 27.0822 194.635 27.8964 194.635 29.4667V38.7718H198.299V30.1646C198.299 28.1872 199.23 27.0822 200.916 27.0822C202.37 27.0822 203.242 27.8964 203.242 29.4667V38.7718H206.907V29.2922C206.907 25.8028 204.754 24.1162 202.079 24.1162C199.724 24.1162 198.648 25.163 197.95 26.3843H197.659C196.99 25.0177 195.798 24.1162 193.704 24.1162C191.61 24.1162 190.476 25.0467 189.925 26.1517H189.633V24.3488H186.027Z" fill="#5BD0F4"/>
</svg>
