<svg width="213" height="59" viewBox="0 0 213 59" fill="none" xmlns="http://www.w3.org/2000/svg">
<path fill-rule="evenodd" clip-rule="evenodd" d="M105.235 6.43504C107.288 4.38233 110.616 4.38233 112.669 6.43504C114.722 8.48789 114.722 11.8161 112.669 13.869L100.154 26.3845C96.5602 21.5687 96.9506 14.7197 101.325 10.3456L105.235 6.43504Z" fill="#4F9E91"/>
<path fill-rule="evenodd" clip-rule="evenodd" d="M123.129 34.6722C125.182 36.7249 125.182 40.0533 123.129 42.106C121.077 44.1588 117.748 44.1588 115.695 42.106L103.18 29.5906C107.995 25.9973 114.844 26.3875 119.219 30.7616L123.129 34.6722Z" fill="#EBE1C5"/>
<path fill-rule="evenodd" clip-rule="evenodd" d="M94.8914 52.5645C92.8387 54.6174 89.5103 54.6174 87.4576 52.5645C85.4048 50.5117 85.4048 47.1834 87.4576 45.1306L99.973 32.6152C103.566 37.431 103.176 44.28 98.802 48.6539L94.8914 52.5645Z" fill="#EBCC6E"/>
<path fill-rule="evenodd" clip-rule="evenodd" d="M77.0006 24.3266C74.9477 22.2738 74.9477 18.9455 77.0006 16.8927C79.0534 14.8398 82.3817 14.8398 84.4345 16.8927L96.95 29.4082C92.1343 33.0015 85.2851 32.6111 80.9112 28.2372L77.0006 24.3266Z" fill="#ED834E"/>
<path fill-rule="evenodd" clip-rule="evenodd" d="M102.438 51.0316C105.464 47.6661 106.871 43.3597 106.658 39.1196L112.669 45.1303C112.683 45.1452 112.699 45.1602 112.714 45.1751V49.4663C112.714 52.3694 110.36 54.7228 107.457 54.7228C105.099 54.7228 103.104 53.1703 102.438 51.0316Z" fill="#ED834E"/>
<path fill-rule="evenodd" clip-rule="evenodd" d="M78.5311 31.875C81.8965 34.9021 86.2029 36.3089 90.4429 36.0955L84.4324 42.1061C84.4173 42.1211 84.4024 42.1362 84.3876 42.1511H80.0964C77.1933 42.1513 74.8398 39.7977 74.8398 36.8946C74.8398 34.5367 76.3924 32.5412 78.5311 31.875Z" fill="#4F9E91"/>
<path fill-rule="evenodd" clip-rule="evenodd" d="M121.595 27.1249C118.23 24.0978 113.924 22.6909 109.684 22.9042L115.694 16.8937C115.709 16.8788 115.724 16.8637 115.739 16.8486H120.03C122.934 16.8486 125.287 19.2022 125.287 22.1053C125.287 24.4633 123.734 26.4586 121.595 27.1249Z" fill="#EBCC6E"/>
<path fill-rule="evenodd" clip-rule="evenodd" d="M97.6863 7.96775C94.6592 11.3331 93.2525 15.6396 93.4658 19.8797L87.4553 13.8691C87.4402 13.8541 87.4252 13.8392 87.4102 13.8243V9.53306C87.4102 6.62995 89.7636 4.27637 92.6667 4.27637C95.0247 4.27637 97.02 5.8291 97.6863 7.96775Z" fill="#EBE1C5"/>
<path fill-rule="evenodd" clip-rule="evenodd" d="M92.6675 0C87.4023 0 83.1341 4.26828 83.1341 9.5334V11.3876C79.9665 10.56 76.456 11.3872 73.9737 13.8694C70.2507 17.5925 70.2507 23.6287 73.9737 27.3517L75.2847 28.6628C72.4597 30.3174 70.5625 33.3846 70.5625 36.8949C70.5625 42.16 74.8308 46.4283 80.0959 46.4283H81.95C81.1223 49.5959 81.9495 53.1064 84.4318 55.5885C88.1548 59.3115 94.191 59.3115 97.9141 55.5885L101.825 51.678C105.274 48.2284 106.885 43.6363 106.658 39.1196L112.669 45.1303C116.392 48.8533 122.428 48.8533 126.151 45.1303C129.875 41.4072 129.875 35.371 126.151 31.6481L124.841 30.3372C127.665 28.6826 129.563 25.6154 129.563 22.1051C129.563 16.84 125.293 12.5717 120.029 12.5717H118.175C119.003 9.40397 118.175 5.89349 115.693 3.41122C111.97 -0.31182 105.934 -0.31182 102.211 3.41122L98.3002 7.32183C94.8505 10.7715 93.2393 15.3634 93.4667 19.8801L87.456 13.8694C87.4409 13.8545 87.426 13.8395 87.4109 13.8246V9.5334C87.4109 6.63029 89.7644 4.27686 92.6675 4.27686C95.0255 4.27686 97.0208 5.82944 97.687 7.96809C97.8845 7.74858 98.0888 7.53306 98.3 7.32183L100.9 4.72225C99.2449 1.89724 96.1778 0 92.6675 0ZM115.738 16.8486C115.723 16.8635 115.708 16.8786 115.693 16.8935L109.682 22.904C113.923 22.6907 118.229 24.0975 121.594 27.1247C123.733 26.4584 125.286 24.463 125.286 22.1051C125.286 19.202 122.933 16.8486 120.029 16.8486H115.738ZM84.3868 42.1514C84.4018 42.1363 84.4167 42.1213 84.4318 42.1063L90.4423 36.0957C86.2022 36.3091 81.896 34.9022 78.5306 31.8753C76.3919 32.5416 74.8392 34.5369 74.8392 36.8949C74.8392 39.798 77.1928 42.1514 80.0959 42.1514H84.3868ZM78.3667 31.7259C78.2035 31.5752 78.0427 31.4206 77.8843 31.2622V31.2623C78.0427 31.4208 78.2035 31.5752 78.3667 31.7259ZM107.457 59C103.947 59 100.88 57.1026 99.2251 54.2776L101.825 51.678C102.036 51.4668 102.24 51.2513 102.438 51.0318C103.104 53.1704 105.099 54.7231 107.457 54.7231C110.361 54.7231 112.714 52.3697 112.714 49.4666V45.1754C113.946 46.3912 115.427 47.2035 116.991 47.6123V49.4666C116.991 54.7317 112.723 59 107.457 59ZM112.669 6.43533C110.616 4.38262 107.288 4.38262 105.235 6.43533L101.324 10.3459C96.9504 14.72 96.56 21.569 100.153 26.3848L112.669 13.8693C114.722 11.8164 114.722 8.48819 112.669 6.43533ZM123.126 42.1062C125.18 40.0533 125.18 36.7251 123.126 34.6722L119.216 30.7616C114.842 26.3877 107.993 25.9974 103.177 29.5907L115.693 42.1062C117.746 44.159 121.075 44.159 123.126 42.1062ZM94.8898 52.5644C92.837 54.6172 89.5087 54.6172 87.4559 52.5644C85.4032 50.5115 85.4032 47.1833 87.4559 45.1304L99.9714 32.6149C103.565 37.4307 103.174 44.2799 98.8004 48.6538L94.8898 52.5644ZM76.9978 16.8935C74.9451 18.9464 74.9451 22.2746 76.9978 24.3275L80.9084 28.2381C85.2825 32.612 92.1315 33.0023 96.9473 29.409L84.4318 16.8935C82.3789 14.8408 79.0507 14.8408 76.9978 16.8935Z" fill="#3D3A2C"/>
<path d="M0 19.2778H4.67521V33.8055H12.705V37.7411H0V19.2778Z" fill="white"/>
<path d="M21.1935 38.1376C19.6263 38.1376 18.2527 37.8558 17.0729 37.2923C15.8931 36.7112 14.9774 35.9187 14.3258 34.9151C13.692 33.8937 13.375 32.7228 13.375 31.402C13.375 30.0813 13.692 28.9191 14.3258 27.9155C14.9774 26.8941 15.8931 26.1016 17.0729 25.5382C18.2527 24.957 19.6263 24.6665 21.1935 24.6665C22.7608 24.6665 24.1342 24.957 25.314 25.5382C26.4939 26.1016 27.4008 26.8941 28.0346 27.9155C28.6862 28.9191 29.0119 30.0813 29.0119 31.402C29.0119 32.7228 28.6862 33.8937 28.0346 34.9151C27.4008 35.9187 26.4939 36.7112 25.314 37.2923C24.1342 37.8558 22.7608 38.1376 21.1935 38.1376ZM21.1935 34.5188C22.1268 34.5188 22.8664 34.2459 23.4122 33.7001C23.9758 33.1365 24.2574 32.3706 24.2574 31.402C24.2574 30.4335 23.9758 29.6763 23.4122 29.1305C22.8664 28.5669 22.1268 28.2853 21.1935 28.2853C20.2602 28.2853 19.5118 28.5669 18.9484 29.1305C18.4024 29.6763 18.1295 30.4335 18.1295 31.402C18.1295 32.3706 18.4024 33.1365 18.9484 33.7001C19.5118 34.2459 20.2602 34.5188 21.1935 34.5188Z" fill="white"/>
<path d="M37.7426 43.8166C36.8973 43.8166 36.0432 43.7373 35.1804 43.5789C34.3352 43.4203 33.6043 43.2091 32.9881 42.9449V39.7224C34.3791 40.321 35.964 40.6204 37.7426 40.6204C39.028 40.6204 39.9525 40.3562 40.516 39.828C41.0971 39.2998 41.3877 38.525 41.3877 37.5036V36.7376C40.877 37.1779 40.243 37.5212 39.4858 37.7678C38.7462 38.0144 37.9538 38.1376 37.1086 38.1376C35.7703 38.1376 34.5905 37.8558 33.5691 37.2923C32.5479 36.7288 31.7466 35.9364 31.1655 34.9151C30.602 33.8937 30.3203 32.7228 30.3203 31.402C30.3203 30.0637 30.602 28.8839 31.1655 27.8626C31.729 26.8412 32.5214 26.0576 33.5428 25.5117C34.564 24.9483 35.7351 24.6665 37.0558 24.6665C38.8696 24.6665 40.3663 25.2212 41.5461 26.3306V25.0626H46.0365V36.8697C46.0365 39.0708 45.3585 40.779 44.0026 41.994C42.6644 43.2091 40.5776 43.8166 37.7426 43.8166ZM38.2708 34.5453C38.9928 34.5453 39.6355 34.3604 40.199 33.9906C40.7625 33.6208 41.1587 33.1278 41.3877 32.5114V30.2927C41.1411 29.6763 40.7361 29.192 40.1726 28.8398C39.609 28.4702 38.9752 28.2853 38.2708 28.2853C37.32 28.2853 36.5539 28.5669 35.9728 29.1305C35.3917 29.6763 35.1011 30.4246 35.1011 31.3756C35.1011 32.3441 35.3917 33.1189 35.9728 33.7001C36.5539 34.2635 37.32 34.5453 38.2708 34.5453Z" fill="white"/>
<path d="M55.0373 38.1376C53.4701 38.1376 52.0966 37.8558 50.9168 37.2923C49.737 36.7112 48.8212 35.9187 48.1697 34.9151C47.5357 33.8937 47.2188 32.7228 47.2188 31.402C47.2188 30.0813 47.5357 28.9191 48.1697 27.9155C48.8212 26.8941 49.737 26.1016 50.9168 25.5382C52.0966 24.957 53.4701 24.6665 55.0373 24.6665C56.6045 24.6665 57.978 24.957 59.1578 25.5382C60.3376 26.1016 61.2445 26.8941 61.8785 27.9155C62.53 28.9191 62.8558 30.0813 62.8558 31.402C62.8558 32.7228 62.53 33.8937 61.8785 34.9151C61.2445 35.9187 60.3376 36.7112 59.1578 37.2923C57.978 37.8558 56.6045 38.1376 55.0373 38.1376ZM55.0373 34.5188C55.9705 34.5188 56.7101 34.2459 57.2561 33.7001C57.8195 33.1365 58.1013 32.3706 58.1013 31.402C58.1013 30.4335 57.8195 29.6763 57.2561 29.1305C56.7101 28.5669 55.9705 28.2853 55.0373 28.2853C54.1041 28.2853 53.3556 28.5669 52.7921 29.1305C52.2462 29.6763 51.9732 30.4335 51.9732 31.402C51.9732 32.3706 52.2462 33.1365 52.7921 33.7001C53.3556 34.2459 54.1041 34.5188 55.0373 34.5188Z" fill="white"/>
<path d="M137.418 19.2778H142.094V37.7411H137.418V19.2778Z" fill="white"/>
<path d="M144.461 25.0626H148.952V26.3306C150.131 25.2212 151.628 24.6665 153.441 24.6665C154.762 24.6665 155.934 24.9483 156.954 25.5117C157.977 26.0576 158.768 26.8412 159.331 27.8626C159.895 28.8663 160.178 30.0374 160.178 31.3756C160.178 32.6963 159.895 33.8761 159.331 34.9151C158.768 35.9363 157.977 36.7288 156.954 37.2923C155.951 37.8558 154.78 38.1376 153.441 38.1376C152.597 38.1376 151.786 38.0055 151.012 37.7413C150.255 37.4949 149.62 37.1514 149.11 36.7112V43.5259H144.461V25.0626ZM152.227 34.5188C153.178 34.5188 153.944 34.2372 154.524 33.6736C155.105 33.1102 155.397 32.3441 155.397 31.3756C155.397 30.407 155.105 29.65 154.524 29.104C153.944 28.5406 153.178 28.2588 152.227 28.2588C151.523 28.2588 150.888 28.4437 150.325 28.8135C149.761 29.1657 149.357 29.65 149.11 30.2662V32.5114C149.357 33.1278 149.761 33.6208 150.325 33.9906C150.888 34.3428 151.523 34.5188 152.227 34.5188Z" fill="white"/>
<path d="M167.109 38.1376C166.088 38.1376 165.023 38.032 163.913 37.8206C162.804 37.6269 161.922 37.3452 161.272 36.9754V33.568C161.993 33.9906 162.856 34.3428 163.86 34.6246C164.881 34.8886 165.814 35.0207 166.66 35.0207C167.276 35.0207 167.725 34.9766 168.006 34.8886C168.289 34.8006 168.429 34.6246 168.429 34.3604C168.429 34.149 168.333 33.9817 168.14 33.8585C167.964 33.7177 167.628 33.5767 167.135 33.4359C166.66 33.2775 166.106 33.1102 165.471 32.934C164.397 32.617 163.553 32.2913 162.936 31.9567C162.319 31.6221 161.862 31.1995 161.561 30.6888C161.263 30.1782 161.113 29.5355 161.113 28.7607C161.113 27.3871 161.65 26.3658 162.724 25.6966C163.816 25.0098 165.304 24.6665 167.188 24.6665C168.104 24.6665 169.064 24.7634 170.067 24.957C171.089 25.1508 171.854 25.4061 172.366 25.7231V29.0777C171.838 28.7255 171.132 28.4348 170.252 28.206C169.39 27.977 168.579 27.8626 167.822 27.8626C167.224 27.8626 166.756 27.9242 166.422 28.0474C166.088 28.1532 165.921 28.3468 165.921 28.6286C165.921 28.8928 166.088 29.0953 166.422 29.2361C166.756 29.3769 167.356 29.5531 168.218 29.7643C168.782 29.9053 169.02 29.9668 168.931 29.9492C170.058 30.2486 170.929 30.5832 171.546 30.953C172.163 31.3228 172.593 31.763 172.841 32.2737C173.105 32.7667 173.237 33.4007 173.237 34.1755C173.237 35.3905 172.709 36.359 171.653 37.081C170.613 37.7854 169.098 38.1376 167.109 38.1376Z" fill="white"/>
<path d="M180.174 38.1379C178.432 38.1379 177.12 37.6536 176.24 36.6852C175.377 35.7166 174.945 34.44 174.945 32.8552V25.063H179.594V32.3268C179.594 33.7884 180.254 34.5192 181.575 34.5192C182.174 34.5192 182.72 34.3783 183.213 34.0966C183.705 33.8148 184.111 33.401 184.427 32.8552V25.063H189.076V37.7416H184.587V36.3682C184.041 36.9492 183.38 37.3894 182.605 37.6888C181.831 37.9882 181.02 38.1379 180.174 38.1379Z" fill="white"/>
<path d="M191.457 25.0626H195.763V26.4362C196.291 25.8728 196.899 25.4413 197.585 25.1419C198.272 24.8249 199.003 24.6665 199.778 24.6665C200.729 24.6665 201.486 24.8073 202.05 25.0891C202.631 25.3709 203.097 25.7935 203.449 26.357C203.977 25.8287 204.621 25.4148 205.378 25.1156C206.135 24.8162 206.902 24.6665 207.675 24.6665C209.348 24.6665 210.537 25.098 211.242 25.9608C211.946 26.806 212.298 28.0298 212.298 29.6322V37.7413H207.86V30.2927C207.86 29.5883 207.728 29.0777 207.464 28.7607C207.2 28.4437 206.76 28.2853 206.144 28.2853C205.351 28.2853 204.708 28.5669 204.215 29.1305C204.233 29.4297 204.242 29.8877 204.242 30.5039V37.7413H199.804V30.1078C199.804 29.4562 199.69 28.9895 199.461 28.7079C199.232 28.4261 198.826 28.2853 198.247 28.2853C197.347 28.2853 196.574 28.787 195.921 29.7908V37.7413H191.457V25.0626Z" fill="white"/>
</svg>
