<svg width="45" height="57" viewBox="0 0 45 57" fill="none" xmlns="http://www.w3.org/2000/svg">
<path d="M22.0186 5.74219C21.728 5.74219 21.4476 5.69788 21.1836 5.61572V9.5957H22.8535V5.61572C22.5896 5.69799 22.3091 5.74219 22.0186 5.74219Z" fill="#135693"/>
<path d="M22.0206 5.85363C23.637 5.85363 24.9474 4.54325 24.9474 2.92682C24.9474 1.31038 23.637 0 22.0206 0C20.4041 0 19.0938 1.31038 19.0938 2.92682C19.0938 4.54325 20.4041 5.85363 22.0206 5.85363Z" fill="#6BC1DD"/>
<g opacity="0.15">
<path opacity="0.15" d="M21.5573 2.92682C21.5573 1.75063 22.2515 0.736992 23.2524 0.271752C22.8778 0.0977461 22.4608 0 22.0206 0C20.4041 0 19.0938 1.31044 19.0938 2.92682C19.0938 4.54319 20.4041 5.85352 22.0206 5.85352C22.4608 5.85352 22.8778 5.75577 23.2524 5.58177C22.2515 5.11664 21.5573 4.103 21.5573 2.92682Z" fill="#440075"/>
</g>
<path d="M40.6751 14.1636H38.9492V30.0855H40.6751C41.6213 30.0855 42.3955 29.3114 42.3955 28.3653V15.8838C42.3955 14.9377 41.6213 14.1636 40.6751 14.1636Z" fill="#9EA7AF"/>
<path d="M5.0913 14.1641H3.25149C2.30531 14.1641 1.53125 14.9382 1.53125 15.8843V28.3656C1.53125 29.3118 2.30531 30.0859 3.25149 30.0859H5.09119L5.0913 14.1641Z" fill="#9EA7AF"/>
<path d="M6.26194 50.9163H3.89778C3.09065 50.9163 2.34085 50.671 1.71875 50.251V55.853C1.71875 56.4838 2.23487 56.9999 2.86565 56.9999H6.26194C6.26194 56.9999 6.26194 50.9163 6.26194 50.9163Z" fill="#C5CCD3"/>
<path d="M40.1414 50.9161H37.7773V56.9998H41.1736C41.8044 56.9998 42.3205 56.4837 42.3205 55.8529V50.251C41.6983 50.6708 40.9485 50.9161 40.1414 50.9161Z" fill="#C5CCD3"/>
<path opacity="0.15" d="M4.12722 55.8531V50.9163H3.89778C3.09065 50.9163 2.34085 50.671 1.71875 50.251V55.853C1.71875 56.4838 2.23487 56.9999 2.86565 56.9999H5.27412C4.64334 57 4.12722 56.4839 4.12722 55.8531Z" fill="#440075"/>
<path d="M6.26354 42.1494H3.89938C1.74585 42.1494 0 43.8953 0 46.0488V47.1957C0 49.3492 1.74596 51.095 3.89938 51.095H6.26343L6.26354 42.1494Z" fill="#E6E9ED"/>
<path d="M40.1414 42.1479H37.7773V51.0936H40.1414C42.295 51.0936 44.0408 49.3478 44.0408 47.1943V46.0474C44.0408 43.8937 42.2949 42.1479 40.1414 42.1479Z" fill="#E6E9ED"/>
<g opacity="0.15">
<path opacity="0.15" d="M2.75259 47.1942V46.0473C2.75259 43.8937 4.49843 42.1479 6.65196 42.1479H3.89938C1.74585 42.1479 0 43.8938 0 46.0473V47.1942C0 49.3478 1.74596 51.0935 3.89938 51.0935H6.65196C4.49832 51.0935 2.75259 49.3478 2.75259 47.1942Z" fill="#440075"/>
</g>
<path d="M25.8286 34.5176H18.2148V37.3627H25.8286V34.5176Z" fill="#9EA7AF"/>
<path opacity="0.15" d="M20.9893 34.5176H18.2148V37.3627H20.9893V34.5176Z" fill="#440075"/>
<path d="M30.9765 40.0781V38.2273C30.9765 37.6834 30.5314 37.2383 29.9874 37.2383H13.7196C13.1756 37.2383 12.7305 37.6834 12.7305 38.2273V40.0781H30.9765Z" fill="#C5CCD3"/>
<path opacity="0.15" d="M16.1606 40.0781V38.2273C16.1606 37.6834 16.6057 37.2383 17.1499 37.2383H13.7196C13.1756 37.2383 12.7305 37.6834 12.7305 38.2273V40.0781H16.1606Z" fill="#440075"/>
<path d="M36.1678 39.8828H7.8727C6.92652 39.8828 6.15234 40.657 6.15234 41.6032V57.0001H37.8882V41.6032C37.8882 40.657 37.1141 39.8828 36.1678 39.8828Z" fill="#9EA7AF"/>
<g opacity="0.15">
<path opacity="0.15" d="M11.1577 39.8828H7.8727C6.92652 39.8828 6.15234 40.657 6.15234 41.6032V57.0001H9.4373V41.6032C9.4373 40.657 10.2115 39.8828 11.1577 39.8828Z" fill="#440075"/>
</g>
<path d="M39.0627 32.9293C39.0627 33.8755 38.2885 34.6495 37.3424 34.6495H6.70071C5.75464 34.6495 4.98047 33.8755 4.98047 32.9293V11.2046C4.98047 10.2584 5.75464 9.48438 6.70071 9.48438H37.3424C38.2885 9.48438 39.0627 10.2584 39.0627 11.2046V32.9293Z" fill="#C5CCD3"/>
<g opacity="0.15">
<path opacity="0.15" d="M8.25897 32.9293V11.2046C8.25897 10.2584 9.03314 9.48438 9.97932 9.48438H6.70071C5.75464 9.48438 4.98047 10.2584 4.98047 11.2046V32.9294C4.98047 33.8756 5.75464 34.6496 6.70071 34.6496H9.97932C9.03314 34.6495 8.25897 33.8755 8.25897 32.9293Z" fill="#440075"/>
</g>
<path d="M34.9911 22.0995C34.9911 25.3814 32.3307 28.0413 29.0491 28.0413H14.9929C11.7111 28.0413 9.05078 25.3812 9.05078 22.0995C9.05078 18.8178 11.7111 16.1577 14.9929 16.1577H29.0491C32.3307 16.1577 34.9911 18.8178 34.9911 22.0995Z" fill="#135693"/>
<g opacity="0.15">
<path opacity="0.15" d="M12.3872 22.0995C12.3872 18.8178 15.0475 16.1577 18.3293 16.1577H14.9929C11.7111 16.1577 9.05078 18.8179 9.05078 22.0995C9.05078 25.3814 11.7111 28.0413 14.9929 28.0413H18.3293C15.0475 28.0413 12.3872 25.3812 12.3872 22.0995Z" fill="#440075"/>
</g>
<path d="M14.4003 24.42C15.6764 24.42 16.7109 23.3815 16.7109 22.1004C16.7109 20.8193 15.6764 19.7808 14.4003 19.7808C13.1243 19.7808 12.0898 20.8193 12.0898 22.1004C12.0898 23.3815 13.1243 24.42 14.4003 24.42Z" fill="#6BC1DD"/>
<path d="M29.6894 24.4195C30.9655 24.4195 31.9999 23.381 31.9999 22.0999C31.9999 20.8188 30.9655 19.7803 29.6894 19.7803C28.4134 19.7803 27.3789 20.8188 27.3789 22.0999C27.3789 23.381 28.4134 24.4195 29.6894 24.4195Z" fill="#6BC1DD"/>
<path d="M32.2699 57.0003V47.0019C32.2699 46.3711 31.7538 45.855 31.123 45.855H12.9164C12.2856 45.855 11.7695 46.3711 11.7695 47.0019V57.0003H32.2699Z" fill="#135693"/>
<path d="M24.0857 57V53.7753C24.0857 53.586 23.9309 53.4312 23.7417 53.4312H20.301C20.1119 53.4312 19.957 53.586 19.957 53.7753V57H24.0857Z" fill="#FFC502"/>
<path d="M17.2032 49.4443H14.5654C14.1042 49.4443 13.7305 49.0706 13.7305 48.6094C13.7305 48.1481 14.1042 47.7744 14.5654 47.7744H17.2032C17.6645 47.7744 18.0382 48.1481 18.0382 48.6094C18.0382 49.0705 17.6645 49.4443 17.2032 49.4443Z" fill="#C5CCD3"/>
<path d="M16.0564 51.4824H14.5654C14.1042 51.4824 13.7305 51.1087 13.7305 50.6475C13.7305 50.1862 14.1042 49.8125 14.5654 49.8125H16.0564C16.5177 49.8125 16.8914 50.1862 16.8914 50.6475C16.8914 51.1087 16.5176 51.4824 16.0564 51.4824Z" fill="#C5CCD3"/>
<path d="M17.2032 53.5215H14.5654C14.1042 53.5215 13.7305 53.1476 13.7305 52.6865C13.7305 52.2253 14.1042 51.8516 14.5654 51.8516H17.2032C17.6645 51.8516 18.0382 52.2253 18.0382 52.6865C18.0382 53.1478 17.6645 53.5215 17.2032 53.5215Z" fill="#C5CCD3"/>
<path d="M15.7123 55.5596H14.5654C14.1042 55.5596 13.7305 55.1858 13.7305 54.7246C13.7305 54.2635 14.1042 53.8896 14.5654 53.8896H15.7123C16.1736 53.8896 16.5473 54.2635 16.5473 54.7246C16.5473 55.1858 16.1735 55.5596 15.7123 55.5596Z" fill="#C5CCD3"/>
<path d="M29.098 54.721H27.062C26.5789 54.721 26.1875 54.3294 26.1875 53.8463C26.1875 53.3631 26.579 52.9717 27.062 52.9717H29.098C29.581 52.9717 29.9727 53.3632 29.9727 53.8463C29.9727 54.3296 29.581 54.721 29.098 54.721Z" fill="#E6E9ED"/>
<path d="M28.0791 51.6899C29.0936 51.6899 29.916 50.8675 29.916 49.853C29.916 48.8385 29.0936 48.0161 28.0791 48.0161C27.0646 48.0161 26.2422 48.8385 26.2422 49.853C26.2422 50.8675 27.0646 51.6899 28.0791 51.6899Z" fill="#5DC647"/>
<path d="M24.1367 50.8131C24.1367 51.0071 23.9781 51.1656 23.7843 51.1656H20.2587C20.0649 51.1656 19.9062 51.0071 19.9062 50.8131V48.8911C19.9062 48.6972 20.0649 48.5386 20.2587 48.5386H23.7843C23.9781 48.5386 24.1367 48.6972 24.1367 48.8911V50.8131Z" fill="#6BC1DD"/>
</svg>
